# AST/ASF file generated using VICON BodyLanguage
# -----------------------------------------------
:version 1.10
:name VICON
:units
  mass 1.0
  length 0.45
  angle deg
:documentation
   .ast/.asf automatically generated from VICON data using
   VICON BodyBuilder and BodyLanguage model FoxedUp or BRILLIANT.MOD
:root
   order TX TY TZ RX RY RZ
   axis XYZ
   position 0 0 0  
   orientation 0 0 0 
:bonedata
  begin
     id 1 
     name lhipjoint
     direction 0.671379 -0.66392 0.329334 
     length 2.38647 
     axis 0 0 0  XYZ
  end
  begin
     id 2 
     name lfemur
     direction 0.34202 -0.939693 0  
     length 6.48179  
     axis 0 0 20  XYZ
    dof rx ry rz
    limits (-160.0 20.0)
           (-70.0 70.0)
           (-60.0 70.0)
  end
  begin
     id 3 
     name ltibia
     direction 0.34202 -0.939693 0   
     length 6.86524   
     axis 0 0 20   XYZ
    dof rx
    limits (-10.0 170.0)
  end
  begin
     id 4 
     name lfoot
     direction 0.204886 -0.562919 0.800715   
     length 1.73031   
     axis -90 7.62852e-016 20   XYZ
    dof rx rz
    limits (-45.0 90.0)
           (-70.0 20.0)
  end
  begin
     id 5 
     name ltoes
     direction 1.53548e-011 -4.21841e-011 1   
     length 0.828161   
     axis -90 7.62852e-016 20   XYZ
    dof rx
    limits (-90.0 20.0)
  end
  begin
     id 6 
     name rhipjoint
     direction -0.662732 -0.670855 0.332775   
     length 2.3618  
     axis 0 0 0  XYZ 
  end
  begin
     id 7 
     name rfemur
     direction -0.34202 -0.939693 0   
     length 6.3025   
     axis 0 0 -20   XYZ
    dof rx ry rz
    limits (-160.0 20.0)
           (-70.0 70.0)
           (-70.0 60.0)
  end
  begin
     id 8 
     name rtibia
     direction -0.34202 -0.939693 0   
     length 6.8732   
     axis 0 0 -20   XYZ
    dof rx
    limits (-10.0 170.0)
 end
 begin
     id 9 
     name rfoot
     direction -0.173856 -0.477665 0.861168   
     length 1.54784  
     axis -90 -7.62852e-016 -20   XYZ
    dof rx rz
    limits (-45.0 90.0)
           (-20.0 70.0)
  end
  begin
     id 10 
     name rtoes
     direction -1.53562e-011 -4.21802e-011 1   
     length 0.759618   
     axis -90 -7.62852e-016 -20   XYZ
    dof rx
    limits (-90.0 20.0)
  end
  begin
     id 11 
     name lowerback
     direction -0.0278357 0.999497 -0.0151789   
     length 1.97203   
     axis 0 0 0   XYZ
    dof rx ry rz
    limits (-20.0 45.0)
           (-30.0 30.0)
           (-30.0 30.0)
  end
  begin
     id 12 
     name upperback
     direction -0.00360622 0.997542 0.0699804   
     length 1.94709   
     axis 0 0 0   XYZ
    dof rx ry rz
    limits (-20.0 45.0)
           (-30.0 30.0)
           (-30.0 30.0)
  end
  begin
     id 13 
     name thorax
     direction 0.00907706 0.997048 0.0762461   
     length 1.95722   
     axis 0 0 0   XYZ
    dof rx ry rz
    limits (-20.0 45.0)
           (-30.0 30.0)
           (-30.0 30.0)
  end
  begin
     id 14 
     name lowerneck
     direction -0.0481835 0.99872 -0.0153927   
     length 1.63078   
     axis 0 0 0   XYZ
    dof rx ry rz
    limits (-20.0 45.0)
           (-30.0 30.0)
           (-30.0 30.0)
  end
  begin
     id 15 
     name upperneck
     direction 0.0859716 0.979226 -0.183644   
     length 1.62591   
     axis 0 0 0   XYZ
    dof rx ry rz
    limits (-20.0 45.0)
           (-30.0 30.0)
           (-30.0 30.0)
  end
  begin
     id 16
     name head
     direction 0.0324821 0.997629 -0.0606773  
     length 1.64811  
     axis 0 0 0   XYZ
    dof rx ry rz
    limits (-20.0 45.0)
           (-30.0 30.0)
           (-30.0 30.0)
  end
  begin
     id 17 
     name lclavicle
     direction 0.939609 0.311019 0.142835  
     length 3.70647  
     axis 0 0 0   XYZ
    dof ry rz
    limits (-20.0 10.0)
           (0.0 20.0)
  end
  begin
     id 18 
     name lhumerus
     direction 1 -4.48963e-011 -1.59838e-027   
     length 4.59207   
     axis 180 -30 -90   XYZ
    dof rx ry rz
    limits (-60.0 90.0)
           (-90.0 90.0)
           (-90.0 90.0)
  end
  begin
     id 19
     name lradius
     direction 1 -4.48957e-011 -1.3483e-026   
     length 2.98109   
     axis 180 -30 -90   XYZ
    dof rx
    limits (-10.0 170.0)
  end
  begin
     id 20
     name lwrist
     direction 1 -4.48954e-011 -3.11579e-026   
     length 1.49055   
     axis 2.00652e-014 90 90   XYZ
    dof ry
    limits (-180.0 0.0)
 end
  begin
     id 21 
     name lhand
     direction 1 -4.4911e-011 -6.23158e-026   
     length 0.480203   
     axis 3.97628e-014 90 90   XYZ
    dof rx rz
    limits (-90.0 90.0)
           (-45.0 45.0)
  end
  begin
     id 22 
     name lfingers
     direction 1 -4.48893e-011 -1.24632e-025   
     length 0.387152   
     axis 7.95256e-014 90 90   XYZ
    dof rx
    limits (0.0 90.0)
  end
  begin
     id 23
     name lthumb
     direction 0.707107 -6.35013e-011 0.707107   
     length 0.555875   
     axis -90 45 2.85299e-015   XYZ
    dof rx rz
    limits (-45.0 45.0)
           (-45.0 45.0)
  end
  begin
     id 24 
     name rclavicle
     direction -0.950396 0.30392 0.0661859   
     length 3.70894  
     axis 0 0 0   XYZ 
    dof ry rz
    limits (-10.0 20.0)
           (-20.0 0.0)
  end
  begin
     id 25 
     name rhumerus
     direction -1 -4.48957e-011 -2.96677e-027  
     length 4.76508   
     axis 180 30 90   XYZ
    dof rx ry rz
    limits (-90.0 60.0)
           (-90.0 90.0)
           (-90.0 90.0)
  end
  begin
     id 26 
     name rradius
     direction -1 -4.48974e-011 -1.44501e-026   
     length 2.78902   
     axis 180 30 90   XYZ
    dof rx
    limits (-10.0 170.0)
  end
  begin
     id 27 
     name rwrist
     direction -1 -4.48978e-011 -3.11579e-026   
     length 1.39451   
     axis 2.00652e-014 -90 -90   XYZ
    dof ry
    limits (-180.0 0.0)
  end
  begin
     id 28
     name rhand
     direction -1 -4.48956e-011 -6.23158e-026   
     length 0.721303   
     axis 3.97628e-014 -90 -90   XYZ
    dof rx rz
    limits (-90.0 90.0)
           (-45.0 45.0)
  end
  begin
     id 29
     name rfingers
     direction -1 -4.4899e-011 -1.24632e-025   
     length 0.581533   
     axis 7.95256e-014 -90 -90   XYZ
    dof rx
    limits (0.0 90.0)
  end
  begin
     id 30
     name rthumb
     direction -0.707107 -6.34911e-011 0.707107   
     length 0.834968   
     axis -90 -45 -2.85299e-015   XYZ
    dof rx rz
    limits (-45.0 45.0)
           (-45.0 45.0)
  end
:hierarchy
  begin
    root lhipjoint rhipjoint lowerback
    lhipjoint lfemur
    lfemur ltibia
    ltibia lfoot
    lfoot ltoes
    rhipjoint rfemur
    rfemur rtibia
    rtibia rfoot
    rfoot rtoes
    lowerback upperback
    upperback thorax
    thorax lowerneck lclavicle rclavicle
    lowerneck upperneck
    upperneck head
    lclavicle lhumerus
    lhumerus lradius
    lradius lwrist
    lwrist lhand lthumb
    lhand lfingers
    rclavicle rhumerus
    rhumerus rradius
    rradius rwrist
    rwrist rhand rthumb
    rhand rfingers
  end

#!OML:ASF I:\salsa\salsa 7_09\Patient 1\Session 1\dancerfemale.ASF
:FULLY-SPECIFIED
:DEGREES
1390
root 10.6015 15.7938 -2.01822 -2518.53 -137.482 2.68271
lowerback 6.10033 2.11429 1.14903
upperback -6.95951 2.96196 2.3001
thorax -10.9451 1.34658 1.39034
lowerneck 3.58952 -1.44831 -6.78934
upperneck 4.06059 -2.36213 4.982
head 0.813286 -1.29603 2.78003
rclavicle -3.11098e-014 -3.49861e-014
rhumerus -56.6668 -28.297 5.61779
rradius 31.5602
rwrist -20.5779
rhand -8.06569 46.8209
rfingers 7.12502
rthumb 17.8456 17.6197
lclavicle -3.11098e-014 -3.49861e-014
lhumerus -30.5711 -21.1974 95.3686
lradius 136.508
lwrist -8.50223
lhand -37.7831 -333.919
lfingers 7.12502
lthumb -10.83 -664.218
rfemur -14.3674 0.817462 28.4365
rtibia 33.9922
rfoot -20.7253 10.6116
rtoes 1.80181
lfemur -38.2205 -18.7231 -6.36632
ltibia 60.2981
lfoot -15.1859 -2.26208
ltoes -28.6428
1391
root 10.373 15.8955 -1.99401 -2516.9 -145.081 0.233942
lowerback 5.76751 2.56448 0.599603
upperback -6.48102 3.4642 1.71217
thorax -10.2103 1.6208 1.00571
lowerneck 2.73891 -0.101415 -6.49075
upperneck 4.21816 -0.479524 4.50258
head 0.886152 -0.341679 2.55677
rclavicle -2.89232e-014 -1.90833e-014
rhumerus -57.8186 -22.6797 1.25925
rradius 33.1593
rwrist -22.8743
rhand -8.43151 47.1457
rfingers 7.12502
rthumb 17.4936 17.9128
lclavicle -2.89232e-014 -1.90833e-014
lhumerus -29.5086 -22.6881 96.6439
lradius 137.292
lwrist -8.37947
lhand -36.4421 -336.316
lfingers 7.12502
lthumb -9.53636 -666.552
rfemur -14.4597 1.88345 25.4597
rtibia 34.2868
rfoot -18.86 14.8472
rtoes 3.25976
lfemur -36.8763 -21.2743 -6.64256
ltibia 55.6607
lfoot -15.2987 -5.52728
ltoes -30.6798
1392
root 10.136 15.9906 -1.97512 -2515.61 -152.627 -1.87171
lowerback 5.43677 2.88868 0.0115341
upperback -6.21363 3.79047 1.10561
thorax -9.71634 1.80396 0.66079
lowerneck 2.39739 1.33513 -6.34851
upperneck 4.13268 1.48149 4.21144
head 0.80405 0.644559 2.42801
rclavicle 8.49804e-014 3.02153e-014
rhumerus -58.3825 -16.6958 -4.21121
rradius 34.6308
rwrist -26.1009
rhand -7.57685 48.2584
rfingers 7.12502
rthumb 18.316 19.1007
lclavicle 8.49804e-014 3.02153e-014
lhumerus -28.7652 -24.1951 98.0105
lradius 137.785
lwrist -9.10446
lhand -36.7781 -336.907
lfingers 7.12502
lthumb -9.86055 -667.158
rfemur -15.2801 2.61692 22.4227
rtibia 34.9567
rfoot -16.7037 18.4719
rtoes 5.87316
lfemur -35.7467 -23.8499 -6.95895
ltibia 51.0811
lfoot -12.6987 -8.29736
ltoes -23.7322
1393
root 9.89853 16.1018 -1.96642 -2514.51 -160.261 -3.86262
lowerback 4.97591 3.22485 -0.78999
upperback -6.04961 4.10908 0.484633
thorax -9.27877 1.99126 0.434954
lowerneck 1.99702 2.71561 -6.06801
upperneck 4.12805 3.37263 3.71712
head 0.777365 1.59456 2.20731
rclavicle -6.66923e-014 -2.70347e-014
rhumerus -59.4659 -11.3708 -9.52135
rradius 35.8264
rwrist -26.3096
rhand -8.89173 50.4077
rfingers 7.12502
rthumb 17.0507 21.136
lclavicle -6.66923e-014 -2.70347e-014
lhumerus -27.9959 -25.5232 99.6587
lradius 138.363
lwrist -9.58964
lhand -36.4608 -337.095
lfingers 7.12502
lthumb -9.55442 -667.332
rfemur -16.8258 3.04979 19.2851
rtibia 35.9824
rfoot -14.5568 21.0945
rtoes 8.21505
lfemur -34.7547 -25.0764 -8.14891
ltibia 47.1448
lfoot -11.5549 -10.2237
ltoes -32.3256
1394
root 9.66133 16.1957 -1.97378 -2513.96 -168.154 -5.64696
lowerback 4.78745 3.51792 -1.50748
upperback -5.95387 4.37053 -0.217417
thorax -9.06826 2.13479 0.0735079
lowerneck 1.30146 4.10394 -5.69476
upperneck 4.44706 5.27993 3.29262
head 0.919474 2.54998 2.0107
rclavicle 5.45664e-014 -2.46493e-014
rhumerus -60.7177 -7.01941 -14.0869
rradius 37.1164
rwrist -25.0533
rhand -7.61415 52.4222
rfingers 7.12502
rthumb 18.2801 23.2612
lclavicle 5.45664e-014 -2.46493e-014
lhumerus -27.3376 -27.0938 100.846
lradius 139.069
lwrist -9.1955
lhand -36.7842 -337.41
lfingers 7.12502
lthumb -9.86644 -667.661
rfemur -18.9914 3.2856 16.353
rtibia 37.863
rfoot -13.3503 22.7654
rtoes 5.6698
lfemur -33.7874 -25.899 -9.27462
ltibia 44.0543
lfoot -5.98638 -11.1847
ltoes -26.2372
1395
root 9.42558 16.2696 -1.99872 -2513.99 -176.357 -7.15617
lowerback 4.62198 3.8059 -2.06253
upperback -5.79281 4.63976 -0.914262
thorax -8.78856 2.26817 -0.367734
lowerneck 0.546791 5.48131 -5.22642
upperneck 4.77978 7.16842 3.04042
head 1.09027 3.49884 1.87009
rclavicle 1.05356e-013 7.95139e-015
rhumerus -62.2284 -3.88847 -18.3705
rradius 38.602
rwrist -22.3156
rhand -7.90706 53.3237
rfingers 7.12502
rthumb 17.9983 24.1365
lclavicle 1.05356e-013 7.95139e-015
lhumerus -26.4846 -28.9621 101.436
lradius 139.691
lwrist -8.59015
lhand -37.4976 -337.377
lfingers 7.12502
lthumb -10.5546 -667.662
rfemur -21.6763 3.21691 13.8816
rtibia 40.6993
rfoot -13.0634 20.6125
rtoes -5.54014
lfemur -31.795 -25.531 -10.7831
ltibia 42.3301
lfoot -5.67193 -11.4917
ltoes -32.1275
1396
root 9.20117 16.2784 -2.02435 -2514.37 -184.749 -8.5993
lowerback 4.56473 3.78827 -2.70166
upperback -5.71566 5.02184 -1.62437
thorax -8.66423 2.68163 -0.831832
lowerneck 0.163203 6.80442 -4.86504
upperneck 4.77236 8.95338 3.21193
head 1.0849 4.40413 1.87052
rclavicle 2.24627e-014 -3.18055e-015
rhumerus -64.0706 -2.39332 -21.7463
rradius 40.5563
rwrist -20.2722
rhand -7.90309 54.3824
rfingers 7.12502
rthumb 18.0021 25.1955
lclavicle 2.24627e-014 -3.18055e-015
lhumerus -25.6529 -31.062 102.026
lradius 140.248
lwrist -7.42075
lhand -37.6157 -336.943
lfingers 7.12502
lthumb -10.6686 -667.234
rfemur -25.2241 1.101 12.2039
rtibia 44.4624
rfoot -12.9509 18.1345
rtoes -17.2271
lfemur -28.9753 -22.861 -13.0984
ltibia 41.5548
lfoot -4.63876 -10.2922
ltoes -42.4825
1397
root 8.98337 16.2247 -2.05881 -2515.14 -193.287 -10.2068
lowerback 4.74441 4.07615 -3.38662
upperback -5.85472 5.30161 -2.43735
thorax -8.91537 2.84106 -1.37258
lowerneck -0.0454995 7.98312 -4.82701
upperneck 4.85332 10.6704 3.94503
head 1.03838 5.35551 2.09925
rclavicle 2.15681e-014 1.11319e-014
rhumerus -66.1729 0.663033 -27.1603
rradius 43.563
rwrist -22.1442
rhand -8.22212 54.916
rfingers 7.12502
rthumb 17.6951 25.7012
lclavicle 2.15681e-014 1.11319e-014
lhumerus -24.9409 -32.89 102.356
lradius 140.693
lwrist -6.36542
lhand -36.7226 -335.939
lfingers 7.12502
lthumb -9.80701 -666.187
rfemur -29.2878 -2.31309 11.342
rtibia 48.7478
rfoot -13.6276 11.7207
rtoes -26.3672
lfemur -26.4331 -18.6663 -15.9611
ltibia 41.3572
lfoot -5.35007 -9.89108
ltoes -40.571
1398
root 8.78128 16.1574 -2.10062 -2516.42 -201.916 -12.3311
lowerback 5.04034 4.36798 -4.54088
upperback -6.17769 5.54965 -3.27274
thorax -9.48636 3.0271 -1.71542
lowerneck 0.27785 9.30906 -4.26763
upperneck 4.64895 12.415 3.98637
head 0.871939 6.23239 1.97696
rclavicle -2.28602e-014 2.54444e-014
rhumerus -68.7372 2.75769 -32.2578
rradius 47.2156
rwrist -25.9221
rhand -8.49946 54.8388
rfingers 7.12502
rthumb 17.4282 25.6001
lclavicle -2.28602e-014 2.54444e-014
lhumerus -24.4556 -34.4975 103.05
lradius 140.9
lwrist -5.37874
lhand -35.8891 -333.88
lfingers 7.12502
lthumb -9.00277 -664.092
rfemur -33.5513 -6.38038 11.5076
rtibia 52.8417
rfoot -14.9416 3.23361
rtoes -33.1633
lfemur -23.9656 -13.1513 -19.4053
ltibia 41.0948
lfoot -7.22121 -7.97794
ltoes -41.6365
1399
root 8.59328 16.1034 -2.15184 -2518.18 -210.329 -14.9718
lowerback 5.14172 4.65099 -5.7184
upperback -6.64586 5.79639 -4.19229
thorax -10.1073 3.22699 -2.14871
lowerneck 0.580121 10.0836 -4.68952
upperneck 4.416 13.416 4.80267
head 0.619861 6.73439 2.25319
rclavicle -1.25135e-013 -1.47101e-014
rhumerus -71.1434 3.01693 -35.0875
rradius 50.8007
rwrist -26.159
rhand -6.47476 55.951
rfingers 7.12502
rthumb 19.3759 26.8963
lclavicle -1.25135e-013 -1.47101e-014
lhumerus -23.7766 -37.0626 102.858
lradius 141.221
lwrist -3.90588
lhand -35.6715 -334.568
lfingers 7.12502
lthumb -8.79277 -664.771
rfemur -37.5504 -10.5798 12.1951
rtibia 56.0379
rfoot -15.738 -5.48615
rtoes -31.3067
lfemur -21.7275 -6.81235 -22.9421
ltibia 40.1783
lfoot -8.95943 -5.58103
ltoes -42.418
